<?xml version="1.0" encoding="utf-8" ?>
<svg baseProfile="tiny" height="100%" version="1.2" width="100%" xmlns="http://www.w3.org/2000/svg" xmlns:ev="http://www.w3.org/2001/xml-events" xmlns:xlink="http://www.w3.org/1999/xlink"><defs /><rect fill="white" height="20" width="20" x="0" y="0" /><text font-size="12" x="8" y="15">_</text><rect fill="white" height="20" width="20" x="20" y="0" /><text font-size="12" x="28" y="15">_</text><rect fill="white" height="20" width="20" x="40" y="0" /><text font-size="12" x="48" y="15">_</text><rect fill="white" height="20" width="20" x="60" y="0" /><text font-size="12" x="68" y="15">_</text><rect fill="white" height="20" width="20" x="80" y="0" /><text font-size="12" x="88" y="15">_</text><rect fill="white" height="20" width="20" x="100" y="0" /><text font-size="12" x="108" y="15">_</text><rect fill="white" height="20" width="20" x="120" y="0" /><text font-size="12" x="128" y="15">_</text><rect fill="white" height="20" width="20" x="140" y="0" /><text font-size="12" x="148" y="15">_</text><rect fill="white" height="20" width="20" x="160" y="0" /><text font-size="12" x="168" y="15">_</text><rect fill="white" height="20" width="20" x="180" y="0" /><text font-size="12" x="188" y="15">_</text><rect fill="white" height="20" width="20" x="200" y="0" /><text font-size="12" x="208" y="15">_</text><rect fill="white" height="20" width="20" x="220" y="0" /><text font-size="12" x="228" y="15">_</text><rect fill="white" height="20" width="20" x="240" y="0" /><text font-size="12" x="248" y="15">_</text><rect fill="white" height="20" width="20" x="260" y="0" /><text font-size="12" x="268" y="15">_</text><rect fill="white" height="20" width="20" x="280" y="0" /><text font-size="12" x="288" y="15">_</text><rect fill="white" height="20" width="20" x="300" y="0" /><text font-size="12" x="308" y="15">_</text><rect fill="white" height="20" width="20" x="320" y="0" /><text font-size="12" x="328" y="15">_</text><rect fill="white" height="20" width="20" x="340" y="0" /><text font-size="12" x="348" y="15">_</text><rect fill="white" height="20" width="20" x="360" y="0" /><text font-size="12" x="368" y="15">_</text><rect fill="white" height="20" width="20" x="380" y="0" /><text font-size="12" x="388" y="15">_</text><rect fill="white" height="20" width="20" x="0" y="20" /><text font-size="12" x="8" y="35">_</text><rect fill="white" height="20" width="20" x="20" y="20" /><text font-size="12" x="28" y="35">_</text><rect fill="white" height="20" width="20" x="40" y="20" /><text font-size="12" x="48" y="35">_</text><rect fill="white" height="20" width="20" x="60" y="20" /><text font-size="12" x="68" y="35">_</text><rect fill="white" height="20" width="20" x="80" y="20" /><text font-size="12" x="88" y="35">_</text><rect fill="white" height="20" width="20" x="100" y="20" /><text font-size="12" x="108" y="35">_</text><rect fill="white" height="20" width="20" x="120" y="20" /><text font-size="12" x="128" y="35">_</text><rect fill="white" height="20" width="20" x="140" y="20" /><text font-size="12" x="148" y="35">_</text><rect fill="white" height="20" width="20" x="160" y="20" /><text font-size="12" x="168" y="35">_</text><rect fill="white" height="20" width="20" x="180" y="20" /><text font-size="12" x="188" y="35">_</text><rect fill="white" height="20" width="20" x="200" y="20" /><text font-size="12" x="208" y="35">_</text><rect fill="white" height="20" width="20" x="220" y="20" /><text font-size="12" x="228" y="35">_</text><rect fill="white" height="20" width="20" x="240" y="20" /><text font-size="12" x="248" y="35">_</text><rect fill="white" height="20" width="20" x="260" y="20" /><text font-size="12" x="268" y="35">_</text><rect fill="white" height="20" width="20" x="280" y="20" /><text font-size="12" x="288" y="35">_</text><rect fill="white" height="20" width="20" x="300" y="20" /><text font-size="12" x="308" y="35">_</text><rect fill="white" height="20" width="20" x="320" y="20" /><text font-size="12" x="328" y="35">_</text><rect fill="white" height="20" width="20" x="340" y="20" /><text font-size="12" x="348" y="35">_</text><rect fill="white" height="20" width="20" x="360" y="20" /><text font-size="12" x="368" y="35">_</text><rect fill="white" height="20" width="20" x="380" y="20" /><text font-size="12" x="388" y="35">_</text><rect fill="white" height="20" width="20" x="0" y="40" /><text font-size="12" x="8" y="55">_</text><rect fill="white" height="20" width="20" x="20" y="40" /><text font-size="12" x="28" y="55">_</text><rect fill="white" height="20" width="20" x="40" y="40" /><text font-size="12" x="48" y="55">_</text><rect fill="white" height="20" width="20" x="60" y="40" /><text font-size="12" x="68" y="55">_</text><rect fill="white" height="20" width="20" x="80" y="40" /><text font-size="12" x="88" y="55">_</text><rect fill="white" height="20" width="20" x="100" y="40" /><text font-size="12" x="108" y="55">_</text><rect fill="white" height="20" width="20" x="120" y="40" /><text font-size="12" x="128" y="55">_</text><rect fill="white" height="20" width="20" x="140" y="40" /><text font-size="12" x="148" y="55">_</text><rect fill="white" height="20" width="20" x="160" y="40" /><text font-size="12" x="168" y="55">_</text><rect fill="white" height="20" width="20" x="180" y="40" /><text font-size="12" x="188" y="55">_</text><rect fill="white" height="20" width="20" x="200" y="40" /><text font-size="12" x="208" y="55">_</text><rect fill="white" height="20" width="20" x="220" y="40" /><text font-size="12" x="228" y="55">_</text><rect fill="white" height="20" width="20" x="240" y="40" /><text font-size="12" x="248" y="55">_</text><rect fill="white" height="20" width="20" x="260" y="40" /><text font-size="12" x="268" y="55">_</text><rect fill="white" height="20" width="20" x="280" y="40" /><text font-size="12" x="288" y="55">_</text><rect fill="white" height="20" width="20" x="300" y="40" /><text font-size="12" x="308" y="55">_</text><rect fill="white" height="20" width="20" x="320" y="40" /><text font-size="12" x="328" y="55">_</text><rect fill="white" height="20" width="20" x="340" y="40" /><text font-size="12" x="348" y="55">_</text><rect fill="white" height="20" width="20" x="360" y="40" /><text font-size="12" x="368" y="55">_</text><rect fill="white" height="20" width="20" x="380" y="40" /><text font-size="12" x="388" y="55">_</text><rect fill="white" height="20" width="20" x="0" y="60" /><text font-size="12" x="8" y="75">_</text><rect fill="white" height="20" width="20" x="20" y="60" /><text font-size="12" x="28" y="75">_</text><rect fill="white" height="20" width="20" x="40" y="60" /><text font-size="12" x="48" y="75">_</text><rect fill="white" height="20" width="20" x="60" y="60" /><text font-size="12" x="68" y="75">_</text><rect fill="white" height="20" width="20" x="80" y="60" /><text font-size="12" x="88" y="75">_</text><rect fill="white" height="20" width="20" x="100" y="60" /><text font-size="12" x="108" y="75">_</text><rect fill="white" height="20" width="20" x="120" y="60" /><text font-size="12" x="128" y="75">_</text><rect fill="white" height="20" width="20" x="140" y="60" /><text font-size="12" x="148" y="75">_</text><rect fill="white" height="20" width="20" x="160" y="60" /><text font-size="12" x="168" y="75">_</text><rect fill="white" height="20" width="20" x="180" y="60" /><text font-size="12" x="188" y="75">_</text><rect fill="white" height="20" width="20" x="200" y="60" /><text font-size="12" x="208" y="75">_</text><rect fill="white" height="20" width="20" x="220" y="60" /><text font-size="12" x="228" y="75">_</text><rect fill="white" height="20" width="20" x="240" y="60" /><text font-size="12" x="248" y="75">_</text><rect fill="white" height="20" width="20" x="260" y="60" /><text font-size="12" x="268" y="75">_</text><rect fill="white" height="20" width="20" x="280" y="60" /><text font-size="12" x="288" y="75">_</text><rect fill="white" height="20" width="20" x="300" y="60" /><text font-size="12" x="308" y="75">_</text><rect fill="white" height="20" width="20" x="320" y="60" /><text font-size="12" x="328" y="75">_</text><rect fill="white" height="20" width="20" x="340" y="60" /><text font-size="12" x="348" y="75">_</text><rect fill="white" height="20" width="20" x="360" y="60" /><text font-size="12" x="368" y="75">_</text><rect fill="white" height="20" width="20" x="380" y="60" /><text font-size="12" x="388" y="75">_</text><rect fill="white" height="20" width="20" x="0" y="80" /><text font-size="12" x="8" y="95">_</text><rect fill="white" height="20" width="20" x="20" y="80" /><text font-size="12" x="28" y="95">_</text><rect fill="white" height="20" width="20" x="40" y="80" /><text font-size="12" x="48" y="95">_</text><rect fill="white" height="20" width="20" x="60" y="80" /><text font-size="12" x="68" y="95">_</text><rect fill="white" height="20" width="20" x="80" y="80" /><text font-size="12" x="88" y="95">_</text><rect fill="white" height="20" width="20" x="100" y="80" /><text font-size="12" x="108" y="95">_</text><rect fill="white" height="20" width="20" x="120" y="80" /><text font-size="12" x="128" y="95">_</text><rect fill="white" height="20" width="20" x="140" y="80" /><text font-size="12" x="148" y="95">_</text><rect fill="white" height="20" width="20" x="160" y="80" /><text font-size="12" x="168" y="95">_</text><rect fill="white" height="20" width="20" x="180" y="80" /><text font-size="12" x="188" y="95">_</text><rect fill="white" height="20" width="20" x="200" y="80" /><text font-size="12" x="208" y="95">_</text><rect fill="white" height="20" width="20" x="220" y="80" /><text font-size="12" x="228" y="95">_</text><rect fill="white" height="20" width="20" x="240" y="80" /><text font-size="12" x="248" y="95">_</text><rect fill="white" height="20" width="20" x="260" y="80" /><text font-size="12" x="268" y="95">_</text><rect fill="white" height="20" width="20" x="280" y="80" /><text font-size="12" x="288" y="95">_</text><rect fill="white" height="20" width="20" x="300" y="80" /><text font-size="12" x="308" y="95">_</text><rect fill="white" height="20" width="20" x="320" y="80" /><text font-size="12" x="328" y="95">_</text><rect fill="white" height="20" width="20" x="340" y="80" /><text font-size="12" x="348" y="95">_</text><rect fill="white" height="20" width="20" x="360" y="80" /><text font-size="12" x="368" y="95">_</text><rect fill="white" height="20" width="20" x="380" y="80" /><text font-size="12" x="388" y="95">_</text><rect fill="white" height="20" width="20" x="0" y="100" /><text font-size="12" x="8" y="115">_</text><rect fill="white" height="20" width="20" x="20" y="100" /><text font-size="12" x="28" y="115">_</text><rect fill="white" height="20" width="20" x="40" y="100" /><text font-size="12" x="48" y="115">_</text><rect fill="white" height="20" width="20" x="60" y="100" /><text font-size="12" x="68" y="115">_</text><rect fill="white" height="20" width="20" x="80" y="100" /><text font-size="12" x="88" y="115">_</text><rect fill="white" height="20" width="20" x="100" y="100" /><text font-size="12" x="108" y="115">_</text><rect fill="white" height="20" width="20" x="120" y="100" /><text font-size="12" x="128" y="115">_</text><rect fill="white" height="20" width="20" x="140" y="100" /><text font-size="12" x="148" y="115">_</text><rect fill="white" height="20" width="20" x="160" y="100" /><text font-size="12" x="168" y="115">_</text><rect fill="white" height="20" width="20" x="180" y="100" /><text font-size="12" x="188" y="115">_</text><rect fill="white" height="20" width="20" x="200" y="100" /><text font-size="12" x="208" y="115">_</text><rect fill="white" height="20" width="20" x="220" y="100" /><text font-size="12" x="228" y="115">_</text><rect fill="white" height="20" width="20" x="240" y="100" /><text font-size="12" x="248" y="115">_</text><rect fill="white" height="20" width="20" x="260" y="100" /><text font-size="12" x="268" y="115">_</text><rect fill="white" height="20" width="20" x="280" y="100" /><text font-size="12" x="288" y="115">_</text><rect fill="white" height="20" width="20" x="300" y="100" /><text font-size="12" x="308" y="115">_</text><rect fill="white" height="20" width="20" x="320" y="100" /><text font-size="12" x="328" y="115">_</text><rect fill="white" height="20" width="20" x="340" y="100" /><text font-size="12" x="348" y="115">_</text><rect fill="white" height="20" width="20" x="360" y="100" /><text font-size="12" x="368" y="115">_</text><rect fill="white" height="20" width="20" x="380" y="100" /><text font-size="12" x="388" y="115">_</text><rect fill="white" height="20" width="20" x="0" y="120" /><text font-size="12" x="8" y="135">_</text><rect fill="white" height="20" width="20" x="20" y="120" /><text font-size="12" x="28" y="135">_</text><rect fill="white" height="20" width="20" x="40" y="120" /><text font-size="12" x="48" y="135">_</text><rect fill="white" height="20" width="20" x="60" y="120" /><text font-size="12" x="68" y="135">_</text><rect fill="white" height="20" width="20" x="80" y="120" /><text font-size="12" x="88" y="135">_</text><rect fill="white" height="20" width="20" x="100" y="120" /><text font-size="12" x="108" y="135">_</text><rect fill="white" height="20" width="20" x="120" y="120" /><text font-size="12" x="128" y="135">_</text><rect fill="white" height="20" width="20" x="140" y="120" /><text font-size="12" x="148" y="135">_</text><rect fill="white" height="20" width="20" x="160" y="120" /><text font-size="12" x="168" y="135">_</text><rect fill="white" height="20" width="20" x="180" y="120" /><text font-size="12" x="188" y="135">_</text><rect fill="white" height="20" width="20" x="200" y="120" /><text font-size="12" x="208" y="135">_</text><rect fill="white" height="20" width="20" x="220" y="120" /><text font-size="12" x="228" y="135">_</text><rect fill="white" height="20" width="20" x="240" y="120" /><text font-size="12" x="248" y="135">p</text><rect fill="white" height="20" width="20" x="260" y="120" /><text font-size="12" x="268" y="135">y</text><rect fill="white" height="20" width="20" x="280" y="120" /><text font-size="12" x="288" y="135">t</text><rect fill="white" height="20" width="20" x="300" y="120" /><text font-size="12" x="308" y="135">h</text><rect fill="white" height="20" width="20" x="320" y="120" /><text font-size="12" x="328" y="135">o</text><rect fill="white" height="20" width="20" x="340" y="120" /><text font-size="12" x="348" y="135">n</text><rect fill="white" height="20" width="20" x="360" y="120" /><text font-size="12" x="368" y="135">_</text><rect fill="white" height="20" width="20" x="380" y="120" /><text font-size="12" x="388" y="135">_</text><rect fill="white" height="20" width="20" x="0" y="140" /><text font-size="12" x="8" y="155">_</text><rect fill="white" height="20" width="20" x="20" y="140" /><text font-size="12" x="28" y="155">_</text><rect fill="white" height="20" width="20" x="40" y="140" /><text font-size="12" x="48" y="155">_</text><rect fill="white" height="20" width="20" x="60" y="140" /><text font-size="12" x="68" y="155">_</text><rect fill="white" height="20" width="20" x="80" y="140" /><text font-size="12" x="88" y="155">_</text><rect fill="white" height="20" width="20" x="100" y="140" /><text font-size="12" x="108" y="155">_</text><rect fill="white" height="20" width="20" x="120" y="140" /><text font-size="12" x="128" y="155">_</text><rect fill="white" height="20" width="20" x="140" y="140" /><text font-size="12" x="148" y="155">_</text><rect fill="white" height="20" width="20" x="160" y="140" /><text font-size="12" x="168" y="155">_</text><rect fill="white" height="20" width="20" x="180" y="140" /><text font-size="12" x="188" y="155">_</text><rect fill="white" height="20" width="20" x="200" y="140" /><text font-size="12" x="208" y="155">_</text><rect fill="white" height="20" width="20" x="220" y="140" /><text font-size="12" x="228" y="155">_</text><rect fill="white" height="20" width="20" x="240" y="140" /><text font-size="12" x="248" y="155">_</text><rect fill="white" height="20" width="20" x="260" y="140" /><text font-size="12" x="268" y="155">_</text><rect fill="white" height="20" width="20" x="280" y="140" /><text font-size="12" x="288" y="155">_</text><rect fill="white" height="20" width="20" x="300" y="140" /><text font-size="12" x="308" y="155">_</text><rect fill="white" height="20" width="20" x="320" y="140" /><text font-size="12" x="328" y="155">_</text><rect fill="white" height="20" width="20" x="340" y="140" /><text font-size="12" x="348" y="155">_</text><rect fill="white" height="20" width="20" x="360" y="140" /><text font-size="12" x="368" y="155">_</text><rect fill="white" height="20" width="20" x="380" y="140" /><text font-size="12" x="388" y="155">_</text><rect fill="white" height="20" width="20" x="0" y="160" /><text font-size="12" x="8" y="175">_</text><rect fill="white" height="20" width="20" x="20" y="160" /><text font-size="12" x="28" y="175">_</text><rect fill="white" height="20" width="20" x="40" y="160" /><text font-size="12" x="48" y="175">_</text><rect fill="white" height="20" width="20" x="60" y="160" /><text font-size="12" x="68" y="175">_</text><rect fill="white" height="20" width="20" x="80" y="160" /><text font-size="12" x="88" y="175">_</text><rect fill="white" height="20" width="20" x="100" y="160" /><text font-size="12" x="108" y="175">_</text><rect fill="white" height="20" width="20" x="120" y="160" /><text font-size="12" x="128" y="175">_</text><rect fill="white" height="20" width="20" x="140" y="160" /><text font-size="12" x="148" y="175">_</text><rect fill="white" height="20" width="20" x="160" y="160" /><text font-size="12" x="168" y="175">_</text><rect fill="white" height="20" width="20" x="180" y="160" /><text font-size="12" x="188" y="175">_</text><rect fill="white" height="20" width="20" x="200" y="160" /><text font-size="12" x="208" y="175">_</text><rect fill="white" height="20" width="20" x="220" y="160" /><text font-size="12" x="228" y="175">_</text><rect fill="white" height="20" width="20" x="240" y="160" /><text font-size="12" x="248" y="175">_</text><rect fill="white" height="20" width="20" x="260" y="160" /><text font-size="12" x="268" y="175">_</text><rect fill="white" height="20" width="20" x="280" y="160" /><text font-size="12" x="288" y="175">_</text><rect fill="white" height="20" width="20" x="300" y="160" /><text font-size="12" x="308" y="175">_</text><rect fill="white" height="20" width="20" x="320" y="160" /><text font-size="12" x="328" y="175">_</text><rect fill="white" height="20" width="20" x="340" y="160" /><text font-size="12" x="348" y="175">_</text><rect fill="white" height="20" width="20" x="360" y="160" /><text font-size="12" x="368" y="175">_</text><rect fill="white" height="20" width="20" x="380" y="160" /><text font-size="12" x="388" y="175">_</text><rect fill="white" height="20" width="20" x="0" y="180" /><text font-size="12" x="8" y="195">_</text><rect fill="white" height="20" width="20" x="20" y="180" /><text font-size="12" x="28" y="195">_</text><rect fill="white" height="20" width="20" x="40" y="180" /><text font-size="12" x="48" y="195">_</text><rect fill="white" height="20" width="20" x="60" y="180" /><text font-size="12" x="68" y="195">_</text><rect fill="white" height="20" width="20" x="80" y="180" /><text font-size="12" x="88" y="195">_</text><rect fill="white" height="20" width="20" x="100" y="180" /><text font-size="12" x="108" y="195">_</text><rect fill="white" height="20" width="20" x="120" y="180" /><text font-size="12" x="128" y="195">_</text><rect fill="white" height="20" width="20" x="140" y="180" /><text font-size="12" x="148" y="195">_</text><rect fill="white" height="20" width="20" x="160" y="180" /><text font-size="12" x="168" y="195">_</text><rect fill="white" height="20" width="20" x="180" y="180" /><text font-size="12" x="188" y="195">_</text><rect fill="white" height="20" width="20" x="200" y="180" /><text font-size="12" x="208" y="195">_</text><rect fill="white" height="20" width="20" x="220" y="180" /><text font-size="12" x="228" y="195">_</text><rect fill="white" height="20" width="20" x="240" y="180" /><text font-size="12" x="248" y="195">_</text><rect fill="white" height="20" width="20" x="260" y="180" /><text font-size="12" x="268" y="195">_</text><rect fill="white" height="20" width="20" x="280" y="180" /><text font-size="12" x="288" y="195">_</text><rect fill="white" height="20" width="20" x="300" y="180" /><text font-size="12" x="308" y="195">_</text><rect fill="white" height="20" width="20" x="320" y="180" /><text font-size="12" x="328" y="195">_</text><rect fill="white" height="20" width="20" x="340" y="180" /><text font-size="12" x="348" y="195">_</text><rect fill="white" height="20" width="20" x="360" y="180" /><text font-size="12" x="368" y="195">_</text><rect fill="white" height="20" width="20" x="380" y="180" /><text font-size="12" x="388" y="195">_</text><rect fill="white" height="20" width="20" x="0" y="200" /><text font-size="12" x="8" y="215">_</text><rect fill="white" height="20" width="20" x="20" y="200" /><text font-size="12" x="28" y="215">_</text><rect fill="white" height="20" width="20" x="40" y="200" /><text font-size="12" x="48" y="215">_</text><rect fill="white" height="20" width="20" x="60" y="200" /><text font-size="12" x="68" y="215">_</text><rect fill="white" height="20" width="20" x="80" y="200" /><text font-size="12" x="88" y="215">_</text><rect fill="white" height="20" width="20" x="100" y="200" /><text font-size="12" x="108" y="215">_</text><rect fill="white" height="20" width="20" x="120" y="200" /><text font-size="12" x="128" y="215">_</text><rect fill="white" height="20" width="20" x="140" y="200" /><text font-size="12" x="148" y="215">_</text><rect fill="white" height="20" width="20" x="160" y="200" /><text font-size="12" x="168" y="215">_</text><rect fill="white" height="20" width="20" x="180" y="200" /><text font-size="12" x="188" y="215">_</text><rect fill="white" height="20" width="20" x="200" y="200" /><text font-size="12" x="208" y="215">s</text><rect fill="white" height="20" width="20" x="220" y="200" /><text font-size="12" x="228" y="215">_</text><rect fill="white" height="20" width="20" x="240" y="200" /><text font-size="12" x="248" y="215">_</text><rect fill="white" height="20" width="20" x="260" y="200" /><text font-size="12" x="268" y="215">_</text><rect fill="white" height="20" width="20" x="280" y="200" /><text font-size="12" x="288" y="215">_</text><rect fill="white" height="20" width="20" x="300" y="200" /><text font-size="12" x="308" y="215">_</text><rect fill="white" height="20" width="20" x="320" y="200" /><text font-size="12" x="328" y="215">_</text><rect fill="white" height="20" width="20" x="340" y="200" /><text font-size="12" x="348" y="215">_</text><rect fill="white" height="20" width="20" x="360" y="200" /><text font-size="12" x="368" y="215">_</text><rect fill="white" height="20" width="20" x="380" y="200" /><text font-size="12" x="388" y="215">_</text><rect fill="white" height="20" width="20" x="0" y="220" /><text font-size="12" x="8" y="235">_</text><rect fill="white" height="20" width="20" x="20" y="220" /><text font-size="12" x="28" y="235">_</text><rect fill="white" height="20" width="20" x="40" y="220" /><text font-size="12" x="48" y="235">_</text><rect fill="white" height="20" width="20" x="60" y="220" /><text font-size="12" x="68" y="235">_</text><rect fill="white" height="20" width="20" x="80" y="220" /><text font-size="12" x="88" y="235">_</text><rect fill="white" height="20" width="20" x="100" y="220" /><text font-size="12" x="108" y="235">_</text><rect fill="white" height="20" width="20" x="120" y="220" /><text font-size="12" x="128" y="235">_</text><rect fill="white" height="20" width="20" x="140" y="220" /><text font-size="12" x="148" y="235">_</text><rect fill="white" height="20" width="20" x="160" y="220" /><text font-size="12" x="168" y="235">_</text><rect fill="white" height="20" width="20" x="180" y="220" /><text font-size="12" x="188" y="235">_</text><rect fill="white" height="20" width="20" x="200" y="220" /><text font-size="12" x="208" y="235">_</text><rect fill="white" height="20" width="20" x="220" y="220" /><text font-size="12" x="228" y="235">e</text><rect fill="white" height="20" width="20" x="240" y="220" /><text font-size="12" x="248" y="235">_</text><rect fill="white" height="20" width="20" x="260" y="220" /><text font-size="12" x="268" y="235">_</text><rect fill="white" height="20" width="20" x="280" y="220" /><text font-size="12" x="288" y="235">_</text><rect fill="white" height="20" width="20" x="300" y="220" /><text font-size="12" x="308" y="235">_</text><rect fill="white" height="20" width="20" x="320" y="220" /><text font-size="12" x="328" y="235">_</text><rect fill="white" height="20" width="20" x="340" y="220" /><text font-size="12" x="348" y="235">_</text><rect fill="white" height="20" width="20" x="360" y="220" /><text font-size="12" x="368" y="235">_</text><rect fill="white" height="20" width="20" x="380" y="220" /><text font-size="12" x="388" y="235">_</text><rect fill="white" height="20" width="20" x="0" y="240" /><text font-size="12" x="8" y="255">_</text><rect fill="white" height="20" width="20" x="20" y="240" /><text font-size="12" x="28" y="255">_</text><rect fill="white" height="20" width="20" x="40" y="240" /><text font-size="12" x="48" y="255">_</text><rect fill="white" height="20" width="20" x="60" y="240" /><text font-size="12" x="68" y="255">_</text><rect fill="white" height="20" width="20" x="80" y="240" /><text font-size="12" x="88" y="255">_</text><rect fill="white" height="20" width="20" x="100" y="240" /><text font-size="12" x="108" y="255">_</text><rect fill="white" height="20" width="20" x="120" y="240" /><text font-size="12" x="128" y="255">_</text><rect fill="white" height="20" width="20" x="140" y="240" /><text font-size="12" x="148" y="255">_</text><rect fill="white" height="20" width="20" x="160" y="240" /><text font-size="12" x="168" y="255">_</text><rect fill="white" height="20" width="20" x="180" y="240" /><text font-size="12" x="188" y="255">_</text><rect fill="white" height="20" width="20" x="200" y="240" /><text font-size="12" x="208" y="255">_</text><rect fill="white" height="20" width="20" x="220" y="240" /><text font-size="12" x="228" y="255">_</text><rect fill="white" height="20" width="20" x="240" y="240" /><text font-size="12" x="248" y="255">a</text><rect fill="white" height="20" width="20" x="260" y="240" /><text font-size="12" x="268" y="255">_</text><rect fill="white" height="20" width="20" x="280" y="240" /><text font-size="12" x="288" y="255">_</text><rect fill="white" height="20" width="20" x="300" y="240" /><text font-size="12" x="308" y="255">_</text><rect fill="white" height="20" width="20" x="320" y="240" /><text font-size="12" x="328" y="255">_</text><rect fill="white" height="20" width="20" x="340" y="240" /><text font-size="12" x="348" y="255">_</text><rect fill="white" height="20" width="20" x="360" y="240" /><text font-size="12" x="368" y="255">_</text><rect fill="white" height="20" width="20" x="380" y="240" /><text font-size="12" x="388" y="255">_</text><rect fill="white" height="20" width="20" x="0" y="260" /><text font-size="12" x="8" y="275">_</text><rect fill="white" height="20" width="20" x="20" y="260" /><text font-size="12" x="28" y="275">_</text><rect fill="white" height="20" width="20" x="40" y="260" /><text font-size="12" x="48" y="275">_</text><rect fill="white" height="20" width="20" x="60" y="260" /><text font-size="12" x="68" y="275">_</text><rect fill="white" height="20" width="20" x="80" y="260" /><text font-size="12" x="88" y="275">_</text><rect fill="white" height="20" width="20" x="100" y="260" /><text font-size="12" x="108" y="275">_</text><rect fill="white" height="20" width="20" x="120" y="260" /><text font-size="12" x="128" y="275">_</text><rect fill="white" height="20" width="20" x="140" y="260" /><text font-size="12" x="148" y="275">_</text><rect fill="white" height="20" width="20" x="160" y="260" /><text font-size="12" x="168" y="275">_</text><rect fill="white" height="20" width="20" x="180" y="260" /><text font-size="12" x="188" y="275">_</text><rect fill="white" height="20" width="20" x="200" y="260" /><text font-size="12" x="208" y="275">_</text><rect fill="white" height="20" width="20" x="220" y="260" /><text font-size="12" x="228" y="275">_</text><rect fill="white" height="20" width="20" x="240" y="260" /><text font-size="12" x="248" y="275">_</text><rect fill="white" height="20" width="20" x="260" y="260" /><text font-size="12" x="268" y="275">r</text><rect fill="white" height="20" width="20" x="280" y="260" /><text font-size="12" x="288" y="275">_</text><rect fill="white" height="20" width="20" x="300" y="260" /><text font-size="12" x="308" y="275">_</text><rect fill="white" height="20" width="20" x="320" y="260" /><text font-size="12" x="328" y="275">_</text><rect fill="white" height="20" width="20" x="340" y="260" /><text font-size="12" x="348" y="275">_</text><rect fill="white" height="20" width="20" x="360" y="260" /><text font-size="12" x="368" y="275">_</text><rect fill="white" height="20" width="20" x="380" y="260" /><text font-size="12" x="388" y="275">_</text><rect fill="white" height="20" width="20" x="0" y="280" /><text font-size="12" x="8" y="295">_</text><rect fill="white" height="20" width="20" x="20" y="280" /><text font-size="12" x="28" y="295">_</text><rect fill="white" height="20" width="20" x="40" y="280" /><text font-size="12" x="48" y="295">_</text><rect fill="white" height="20" width="20" x="60" y="280" /><text font-size="12" x="68" y="295">_</text><rect fill="white" height="20" width="20" x="80" y="280" /><text font-size="12" x="88" y="295">_</text><rect fill="white" height="20" width="20" x="100" y="280" /><text font-size="12" x="108" y="295">_</text><rect fill="white" height="20" width="20" x="120" y="280" /><text font-size="12" x="128" y="295">_</text><rect fill="white" height="20" width="20" x="140" y="280" /><text font-size="12" x="148" y="295">_</text><rect fill="white" height="20" width="20" x="160" y="280" /><text font-size="12" x="168" y="295">_</text><rect fill="white" height="20" width="20" x="180" y="280" /><text font-size="12" x="188" y="295">_</text><rect fill="white" height="20" width="20" x="200" y="280" /><text font-size="12" x="208" y="295">_</text><rect fill="white" height="20" width="20" x="220" y="280" /><text font-size="12" x="228" y="295">_</text><rect fill="white" height="20" width="20" x="240" y="280" /><text font-size="12" x="248" y="295">_</text><rect fill="white" height="20" width="20" x="260" y="280" /><text font-size="12" x="268" y="295">_</text><rect fill="white" height="20" width="20" x="280" y="280" /><text font-size="12" x="288" y="295">c</text><rect fill="white" height="20" width="20" x="300" y="280" /><text font-size="12" x="308" y="295">_</text><rect fill="white" height="20" width="20" x="320" y="280" /><text font-size="12" x="328" y="295">_</text><rect fill="white" height="20" width="20" x="340" y="280" /><text font-size="12" x="348" y="295">_</text><rect fill="white" height="20" width="20" x="360" y="280" /><text font-size="12" x="368" y="295">_</text><rect fill="white" height="20" width="20" x="380" y="280" /><text font-size="12" x="388" y="295">_</text><rect fill="white" height="20" width="20" x="0" y="300" /><text font-size="12" x="8" y="315">_</text><rect fill="white" height="20" width="20" x="20" y="300" /><text font-size="12" x="28" y="315">_</text><rect fill="white" height="20" width="20" x="40" y="300" /><text font-size="12" x="48" y="315">_</text><rect fill="white" height="20" width="20" x="60" y="300" /><text font-size="12" x="68" y="315">_</text><rect fill="white" height="20" width="20" x="80" y="300" /><text font-size="12" x="88" y="315">_</text><rect fill="white" height="20" width="20" x="100" y="300" /><text font-size="12" x="108" y="315">_</text><rect fill="white" height="20" width="20" x="120" y="300" /><text font-size="12" x="128" y="315">_</text><rect fill="white" height="20" width="20" x="140" y="300" /><text font-size="12" x="148" y="315">_</text><rect fill="white" height="20" width="20" x="160" y="300" /><text font-size="12" x="168" y="315">_</text><rect fill="white" height="20" width="20" x="180" y="300" /><text font-size="12" x="188" y="315">_</text><rect fill="white" height="20" width="20" x="200" y="300" /><text font-size="12" x="208" y="315">_</text><rect fill="white" height="20" width="20" x="220" y="300" /><text font-size="12" x="228" y="315">_</text><rect fill="white" height="20" width="20" x="240" y="300" /><text font-size="12" x="248" y="315">_</text><rect fill="white" height="20" width="20" x="260" y="300" /><text font-size="12" x="268" y="315">s</text><rect fill="white" height="20" width="20" x="280" y="300" /><text font-size="12" x="288" y="315">v</text><rect fill="white" height="20" width="20" x="300" y="300" /><text font-size="12" x="308" y="315">h</text><rect fill="white" height="20" width="20" x="320" y="300" /><text font-size="12" x="328" y="315">_</text><rect fill="white" height="20" width="20" x="340" y="300" /><text font-size="12" x="348" y="315">_</text><rect fill="white" height="20" width="20" x="360" y="300" /><text font-size="12" x="368" y="315">_</text><rect fill="white" height="20" width="20" x="380" y="300" /><text font-size="12" x="388" y="315">_</text><rect fill="white" height="20" width="20" x="0" y="320" /><text font-size="12" x="8" y="335">_</text><rect fill="white" height="20" width="20" x="20" y="320" /><text font-size="12" x="28" y="335">_</text><rect fill="white" height="20" width="20" x="40" y="320" /><text font-size="12" x="48" y="335">_</text><rect fill="white" height="20" width="20" x="60" y="320" /><text font-size="12" x="68" y="335">_</text><rect fill="white" height="20" width="20" x="80" y="320" /><text font-size="12" x="88" y="335">_</text><rect fill="white" height="20" width="20" x="100" y="320" /><text font-size="12" x="108" y="335">_</text><rect fill="white" height="20" width="20" x="120" y="320" /><text font-size="12" x="128" y="335">_</text><rect fill="white" height="20" width="20" x="140" y="320" /><text font-size="12" x="148" y="335">_</text><rect fill="white" height="20" width="20" x="160" y="320" /><text font-size="12" x="168" y="335">_</text><rect fill="white" height="20" width="20" x="180" y="320" /><text font-size="12" x="188" y="335">_</text><rect fill="white" height="20" width="20" x="200" y="320" /><text font-size="12" x="208" y="335">_</text><rect fill="white" height="20" width="20" x="220" y="320" /><text font-size="12" x="228" y="335">_</text><rect fill="white" height="20" width="20" x="240" y="320" /><text font-size="12" x="248" y="335">_</text><rect fill="white" height="20" width="20" x="260" y="320" /><text font-size="12" x="268" y="335">_</text><rect fill="white" height="20" width="20" x="280" y="320" /><text font-size="12" x="288" y="335">_</text><rect fill="white" height="20" width="20" x="300" y="320" /><text font-size="12" x="308" y="335">_</text><rect fill="white" height="20" width="20" x="320" y="320" /><text font-size="12" x="328" y="335">_</text><rect fill="white" height="20" width="20" x="340" y="320" /><text font-size="12" x="348" y="335">_</text><rect fill="white" height="20" width="20" x="360" y="320" /><text font-size="12" x="368" y="335">_</text><rect fill="white" height="20" width="20" x="380" y="320" /><text font-size="12" x="388" y="335">_</text><rect fill="white" height="20" width="20" x="0" y="340" /><text font-size="12" x="8" y="355">_</text><rect fill="white" height="20" width="20" x="20" y="340" /><text font-size="12" x="28" y="355">_</text><rect fill="white" height="20" width="20" x="40" y="340" /><text font-size="12" x="48" y="355">_</text><rect fill="white" height="20" width="20" x="60" y="340" /><text font-size="12" x="68" y="355">_</text><rect fill="white" height="20" width="20" x="80" y="340" /><text font-size="12" x="88" y="355">_</text><rect fill="white" height="20" width="20" x="100" y="340" /><text font-size="12" x="108" y="355">_</text><rect fill="white" height="20" width="20" x="120" y="340" /><text font-size="12" x="128" y="355">_</text><rect fill="white" height="20" width="20" x="140" y="340" /><text font-size="12" x="148" y="355">_</text><rect fill="white" height="20" width="20" x="160" y="340" /><text font-size="12" x="168" y="355">_</text><rect fill="white" height="20" width="20" x="180" y="340" /><text font-size="12" x="188" y="355">_</text><rect fill="white" height="20" width="20" x="200" y="340" /><text font-size="12" x="208" y="355">_</text><rect fill="white" height="20" width="20" x="220" y="340" /><text font-size="12" x="228" y="355">_</text><rect fill="white" height="20" width="20" x="240" y="340" /><text font-size="12" x="248" y="355">_</text><rect fill="white" height="20" width="20" x="260" y="340" /><text font-size="12" x="268" y="355">_</text><rect fill="white" height="20" width="20" x="280" y="340" /><text font-size="12" x="288" y="355">_</text><rect fill="white" height="20" width="20" x="300" y="340" /><text font-size="12" x="308" y="355">w</text><rect fill="white" height="20" width="20" x="320" y="340" /><text font-size="12" x="328" y="355">o</text><rect fill="white" height="20" width="20" x="340" y="340" /><text font-size="12" x="348" y="355">r</text><rect fill="white" height="20" width="20" x="360" y="340" /><text font-size="12" x="368" y="355">d</text><rect fill="white" height="20" width="20" x="380" y="340" /><text font-size="12" x="388" y="355">_</text><rect fill="white" height="20" width="20" x="0" y="360" /><text font-size="12" x="8" y="375">_</text><rect fill="white" height="20" width="20" x="20" y="360" /><text font-size="12" x="28" y="375">_</text><rect fill="white" height="20" width="20" x="40" y="360" /><text font-size="12" x="48" y="375">_</text><rect fill="white" height="20" width="20" x="60" y="360" /><text font-size="12" x="68" y="375">_</text><rect fill="white" height="20" width="20" x="80" y="360" /><text font-size="12" x="88" y="375">_</text><rect fill="white" height="20" width="20" x="100" y="360" /><text font-size="12" x="108" y="375">_</text><rect fill="white" height="20" width="20" x="120" y="360" /><text font-size="12" x="128" y="375">_</text><rect fill="white" height="20" width="20" x="140" y="360" /><text font-size="12" x="148" y="375">_</text><rect fill="white" height="20" width="20" x="160" y="360" /><text font-size="12" x="168" y="375">_</text><rect fill="white" height="20" width="20" x="180" y="360" /><text font-size="12" x="188" y="375">_</text><rect fill="white" height="20" width="20" x="200" y="360" /><text font-size="12" x="208" y="375">_</text><rect fill="white" height="20" width="20" x="220" y="360" /><text font-size="12" x="228" y="375">c</text><rect fill="white" height="20" width="20" x="240" y="360" /><text font-size="12" x="248" y="375">o</text><rect fill="white" height="20" width="20" x="260" y="360" /><text font-size="12" x="268" y="375">d</text><rect fill="white" height="20" width="20" x="280" y="360" /><text font-size="12" x="288" y="375">e</text><rect fill="white" height="20" width="20" x="300" y="360" /><text font-size="12" x="308" y="375">_</text><rect fill="white" height="20" width="20" x="320" y="360" /><text font-size="12" x="328" y="375">_</text><rect fill="white" height="20" width="20" x="340" y="360" /><text font-size="12" x="348" y="375">_</text><rect fill="white" height="20" width="20" x="360" y="360" /><text font-size="12" x="368" y="375">_</text><rect fill="white" height="20" width="20" x="380" y="360" /><text font-size="12" x="388" y="375">_</text><rect fill="white" height="20" width="20" x="0" y="380" /><text font-size="12" x="8" y="395">_</text><rect fill="white" height="20" width="20" x="20" y="380" /><text font-size="12" x="28" y="395">_</text><rect fill="white" height="20" width="20" x="40" y="380" /><text font-size="12" x="48" y="395">_</text><rect fill="white" height="20" width="20" x="60" y="380" /><text font-size="12" x="68" y="395">_</text><rect fill="white" height="20" width="20" x="80" y="380" /><text font-size="12" x="88" y="395">_</text><rect fill="white" height="20" width="20" x="100" y="380" /><text font-size="12" x="108" y="395">_</text><rect fill="white" height="20" width="20" x="120" y="380" /><text font-size="12" x="128" y="395">_</text><rect fill="white" height="20" width="20" x="140" y="380" /><text font-size="12" x="148" y="395">_</text><rect fill="white" height="20" width="20" x="160" y="380" /><text font-size="12" x="168" y="395">_</text><rect fill="white" height="20" width="20" x="180" y="380" /><text font-size="12" x="188" y="395">_</text><rect fill="white" height="20" width="20" x="200" y="380" /><text font-size="12" x="208" y="395">_</text><rect fill="white" height="20" width="20" x="220" y="380" /><text font-size="12" x="228" y="395">_</text><rect fill="white" height="20" width="20" x="240" y="380" /><text font-size="12" x="248" y="395">_</text><rect fill="white" height="20" width="20" x="260" y="380" /><text font-size="12" x="268" y="395">_</text><rect fill="white" height="20" width="20" x="280" y="380" /><text font-size="12" x="288" y="395">_</text><rect fill="white" height="20" width="20" x="300" y="380" /><text font-size="12" x="308" y="395">_</text><rect fill="white" height="20" width="20" x="320" y="380" /><text font-size="12" x="328" y="395">_</text><rect fill="white" height="20" width="20" x="340" y="380" /><text font-size="12" x="348" y="395">_</text><rect fill="white" height="20" width="20" x="360" y="380" /><text font-size="12" x="368" y="395">_</text><rect fill="white" height="20" width="20" x="380" y="380" /><text font-size="12" x="388" y="395">_</text></svg>