<svg xmlns="http://www.w3.org/2000/svg" width="200" height="200">
	<rect x="0" y="0" width="10" height="10" fill-opacity="0" />
	<text x="5.0" y="5.0" text-anchor="middle" alignment-baseline="middle" fill="black">F</text>
	<rect x="10" y="0" width="10" height="10" fill-opacity="0" />
	<text x="15.0" y="5.0" text-anchor="middle" alignment-baseline="middle" fill="black">E</text>
	<rect x="20" y="0" width="10" height="10" fill-opacity="0" />
	<text x="25.0" y="5.0" text-anchor="middle" alignment-baseline="middle" fill="black">Z</text>
	<rect x="30" y="0" width="10" height="10" fill-opacity="0" />
	<text x="35.0" y="5.0" text-anchor="middle" alignment-baseline="middle" fill="black">N</text>
	<rect x="40" y="0" width="10" height="10" fill-opacity="0" />
	<text x="45.0" y="5.0" text-anchor="middle" alignment-baseline="middle" fill="blue" font-weight = "900">S</text>
	<rect x="50" y="0" width="10" height="10" fill-opacity="0" />
	<text x="55.0" y="5.0" text-anchor="middle" alignment-baseline="middle" fill="blue" font-weight = "900">O</text>
	<rect x="60" y="0" width="10" height="10" fill-opacity="0" />
	<text x="65.0" y="5.0" text-anchor="middle" alignment-baseline="middle" fill="blue" font-weight = "900">C</text>
	<rect x="70" y="0" width="10" height="10" fill-opacity="0" />
	<text x="75.0" y="5.0" text-anchor="middle" alignment-baseline="middle" fill="blue" font-weight = "900">A</text>
	<rect x="80" y="0" width="10" height="10" fill-opacity="0" />
	<text x="85.0" y="5.0" text-anchor="middle" alignment-baseline="middle" fill="blue" font-weight = "900">T</text>
	<rect x="90" y="0" width="10" height="10" fill-opacity="0" />
	<text x="95.0" y="5.0" text-anchor="middle" alignment-baseline="middle" fill="blue" font-weight = "900">S</text>
	<rect x="0" y="10" width="10" height="10" fill-opacity="0" />
	<text x="5.0" y="15.0" text-anchor="middle" alignment-baseline="middle" fill="black">N</text>
	<rect x="10" y="10" width="10" height="10" fill-opacity="0" />
	<text x="15.0" y="15.0" text-anchor="middle" alignment-baseline="middle" fill="black">A</text>
	<rect x="20" y="10" width="10" height="10" fill-opacity="0" />
	<text x="25.0" y="15.0" text-anchor="middle" alignment-baseline="middle" fill="black">Z</text>
	<rect x="30" y="10" width="10" height="10" fill-opacity="0" />
	<text x="35.0" y="15.0" text-anchor="middle" alignment-baseline="middle" fill="black">G</text>
	<rect x="40" y="10" width="10" height="10" fill-opacity="0" />
	<text x="45.0" y="15.0" text-anchor="middle" alignment-baseline="middle" fill="black">G</text>
	<rect x="50" y="10" width="10" height="10" fill-opacity="0" />
	<text x="55.0" y="15.0" text-anchor="middle" alignment-baseline="middle" fill="black">B</text>
	<rect x="60" y="10" width="10" height="10" fill-opacity="0" />
	<text x="65.0" y="15.0" text-anchor="middle" alignment-baseline="middle" fill="black">F</text>
	<rect x="70" y="10" width="10" height="10" fill-opacity="0" />
	<text x="75.0" y="15.0" text-anchor="middle" alignment-baseline="middle" fill="black">A</text>
	<rect x="80" y="10" width="10" height="10" fill-opacity="0" />
	<text x="85.0" y="15.0" text-anchor="middle" alignment-baseline="middle" fill="black">W</text>
	<rect x="90" y="10" width="10" height="10" fill-opacity="0" />
	<text x="95.0" y="15.0" text-anchor="middle" alignment-baseline="middle" fill="blue" font-weight = "900">U</text>
	<rect x="0" y="20" width="10" height="10" fill-opacity="0" />
	<text x="5.0" y="25.0" text-anchor="middle" alignment-baseline="middle" fill="black">E</text>
	<rect x="10" y="20" width="10" height="10" fill-opacity="0" />
	<text x="15.0" y="25.0" text-anchor="middle" alignment-baseline="middle" fill="black">H</text>
	<rect x="20" y="20" width="10" height="10" fill-opacity="0" />
	<text x="25.0" y="25.0" text-anchor="middle" alignment-baseline="middle" fill="black">Q</text>
	<rect x="30" y="20" width="10" height="10" fill-opacity="0" />
	<text x="35.0" y="25.0" text-anchor="middle" alignment-baseline="middle" fill="black">G</text>
	<rect x="40" y="20" width="10" height="10" fill-opacity="0" />
	<text x="45.0" y="25.0" text-anchor="middle" alignment-baseline="middle" fill="blue" font-weight = "900">N</text>
	<rect x="50" y="20" width="10" height="10" fill-opacity="0" />
	<text x="55.0" y="25.0" text-anchor="middle" alignment-baseline="middle" fill="black">L</text>
	<rect x="60" y="20" width="10" height="10" fill-opacity="0" />
	<text x="65.0" y="25.0" text-anchor="middle" alignment-baseline="middle" fill="black">S</text>
	<rect x="70" y="20" width="10" height="10" fill-opacity="0" />
	<text x="75.0" y="25.0" text-anchor="middle" alignment-baseline="middle" fill="black">W</text>
	<rect x="80" y="20" width="10" height="10" fill-opacity="0" />
	<text x="85.0" y="25.0" text-anchor="middle" alignment-baseline="middle" fill="black">G</text>
	<rect x="90" y="20" width="10" height="10" fill-opacity="0" />
	<text x="95.0" y="25.0" text-anchor="middle" alignment-baseline="middle" fill="blue" font-weight = "900">S</text>
	<rect x="0" y="30" width="10" height="10" fill-opacity="0" />
	<text x="5.0" y="35.0" text-anchor="middle" alignment-baseline="middle" fill="black">C</text>
	<rect x="10" y="30" width="10" height="10" fill-opacity="0" />
	<text x="15.0" y="35.0" text-anchor="middle" alignment-baseline="middle" fill="black">C</text>
	<rect x="20" y="30" width="10" height="10" fill-opacity="0" />
	<text x="25.0" y="35.0" text-anchor="middle" alignment-baseline="middle" fill="black">Y</text>
	<rect x="30" y="30" width="10" height="10" fill-opacity="0" />
	<text x="35.0" y="35.0" text-anchor="middle" alignment-baseline="middle" fill="blue" font-weight = "900">O</text>
	<rect x="40" y="30" width="10" height="10" fill-opacity="0" />
	<text x="45.0" y="35.0" text-anchor="middle" alignment-baseline="middle" fill="black">J</text>
	<rect x="50" y="30" width="10" height="10" fill-opacity="0" />
	<text x="55.0" y="35.0" text-anchor="middle" alignment-baseline="middle" fill="black">U</text>
	<rect x="60" y="30" width="10" height="10" fill-opacity="0" />
	<text x="65.0" y="35.0" text-anchor="middle" alignment-baseline="middle" fill="black">Y</text>
	<rect x="70" y="30" width="10" height="10" fill-opacity="0" />
	<text x="75.0" y="35.0" text-anchor="middle" alignment-baseline="middle" fill="black">T</text>
	<rect x="80" y="30" width="10" height="10" fill-opacity="0" />
	<text x="85.0" y="35.0" text-anchor="middle" alignment-baseline="middle" fill="black">L</text>
	<rect x="90" y="30" width="10" height="10" fill-opacity="0" />
	<text x="95.0" y="35.0" text-anchor="middle" alignment-baseline="middle" fill="blue" font-weight = "900">H</text>
	<rect x="0" y="40" width="10" height="10" fill-opacity="0" />
	<text x="5.0" y="45.0" text-anchor="middle" alignment-baseline="middle" fill="black">R</text>
	<rect x="10" y="40" width="10" height="10" fill-opacity="0" />
	<text x="15.0" y="45.0" text-anchor="middle" alignment-baseline="middle" fill="black">C</text>
	<rect x="20" y="40" width="10" height="10" fill-opacity="0" />
	<text x="25.0" y="45.0" text-anchor="middle" alignment-baseline="middle" fill="blue" font-weight = "900">C</text>
	<rect x="30" y="40" width="10" height="10" fill-opacity="0" />
	<text x="35.0" y="45.0" text-anchor="middle" alignment-baseline="middle" fill="blue" font-weight = "900">P</text>
	<rect x="40" y="40" width="10" height="10" fill-opacity="0" />
	<text x="45.0" y="45.0" text-anchor="middle" alignment-baseline="middle" fill="blue" font-weight = "900">I</text>
	<rect x="50" y="40" width="10" height="10" fill-opacity="0" />
	<text x="55.0" y="45.0" text-anchor="middle" alignment-baseline="middle" fill="blue" font-weight = "900">Z</text>
	<rect x="60" y="40" width="10" height="10" fill-opacity="0" />
	<text x="65.0" y="45.0" text-anchor="middle" alignment-baseline="middle" fill="blue" font-weight = "900">Z</text>
	<rect x="70" y="40" width="10" height="10" fill-opacity="0" />
	<text x="75.0" y="45.0" text-anchor="middle" alignment-baseline="middle" fill="blue" font-weight = "900">A</text>
	<rect x="80" y="40" width="10" height="10" fill-opacity="0" />
	<text x="85.0" y="45.0" text-anchor="middle" alignment-baseline="middle" fill="black">Y</text>
	<rect x="90" y="40" width="10" height="10" fill-opacity="0" />
	<text x="95.0" y="45.0" text-anchor="middle" alignment-baseline="middle" fill="blue" font-weight = "900">I</text>
	<rect x="0" y="50" width="10" height="10" fill-opacity="0" />
	<text x="5.0" y="55.0" text-anchor="middle" alignment-baseline="middle" fill="black">O</text>
	<rect x="10" y="50" width="10" height="10" fill-opacity="0" />
	<text x="15.0" y="55.0" text-anchor="middle" alignment-baseline="middle" fill="blue" font-weight = "900">A</text>
	<rect x="20" y="50" width="10" height="10" fill-opacity="0" />
	<text x="25.0" y="55.0" text-anchor="middle" alignment-baseline="middle" fill="black">M</text>
	<rect x="30" y="50" width="10" height="10" fill-opacity="0" />
	<text x="35.0" y="55.0" text-anchor="middle" alignment-baseline="middle" fill="blue" font-weight = "900">E</text>
	<rect x="40" y="50" width="10" height="10" fill-opacity="0" />
	<text x="45.0" y="55.0" text-anchor="middle" alignment-baseline="middle" fill="blue" font-weight = "900">S</text>
	<rect x="50" y="50" width="10" height="10" fill-opacity="0" />
	<text x="55.0" y="55.0" text-anchor="middle" alignment-baseline="middle" fill="blue" font-weight = "900">E</text>
	<rect x="60" y="50" width="10" height="10" fill-opacity="0" />
	<text x="65.0" y="55.0" text-anchor="middle" alignment-baseline="middle" fill="blue" font-weight = "900">E</text>
	<rect x="70" y="50" width="10" height="10" fill-opacity="0" />
	<text x="75.0" y="55.0" text-anchor="middle" alignment-baseline="middle" fill="blue" font-weight = "900">H</text>
	<rect x="80" y="50" width="10" height="10" fill-opacity="0" />
	<text x="85.0" y="55.0" text-anchor="middle" alignment-baseline="middle" fill="blue" font-weight = "900">C</text>
	<rect x="90" y="50" width="10" height="10" fill-opacity="0" />
	<text x="95.0" y="55.0" text-anchor="middle" alignment-baseline="middle" fill="black">C</text>
	<rect x="0" y="60" width="10" height="10" fill-opacity="0" />
	<text x="5.0" y="65.0" text-anchor="middle" alignment-baseline="middle" fill="blue" font-weight = "900">B</text>
	<rect x="10" y="60" width="10" height="10" fill-opacity="0" />
	<text x="15.0" y="65.0" text-anchor="middle" alignment-baseline="middle" fill="black">W</text>
	<rect x="20" y="60" width="10" height="10" fill-opacity="0" />
	<text x="25.0" y="65.0" text-anchor="middle" alignment-baseline="middle" fill="black">L</text>
	<rect x="30" y="60" width="10" height="10" fill-opacity="0" />
	<text x="35.0" y="65.0" text-anchor="middle" alignment-baseline="middle" fill="black">Z</text>
	<rect x="40" y="60" width="10" height="10" fill-opacity="0" />
	<text x="45.0" y="65.0" text-anchor="middle" alignment-baseline="middle" fill="black">H</text>
	<rect x="50" y="60" width="10" height="10" fill-opacity="0" />
	<text x="55.0" y="65.0" text-anchor="middle" alignment-baseline="middle" fill="black">A</text>
	<rect x="60" y="60" width="10" height="10" fill-opacity="0" />
	<text x="65.0" y="65.0" text-anchor="middle" alignment-baseline="middle" fill="black">R</text>
	<rect x="70" y="60" width="10" height="10" fill-opacity="0" />
	<text x="75.0" y="65.0" text-anchor="middle" alignment-baseline="middle" fill="black">R</text>
	<rect x="80" y="60" width="10" height="10" fill-opacity="0" />
	<text x="85.0" y="65.0" text-anchor="middle" alignment-baseline="middle" fill="black">R</text>
	<rect x="90" y="60" width="10" height="10" fill-opacity="0" />
	<text x="95.0" y="65.0" text-anchor="middle" alignment-baseline="middle" fill="black">Q</text>
	<rect x="0" y="70" width="10" height="10" fill-opacity="0" />
	<text x="5.0" y="75.0" text-anchor="middle" alignment-baseline="middle" fill="black">T</text>
	<rect x="10" y="70" width="10" height="10" fill-opacity="0" />
	<text x="15.0" y="75.0" text-anchor="middle" alignment-baseline="middle" fill="black">Q</text>
	<rect x="20" y="70" width="10" height="10" fill-opacity="0" />
	<text x="25.0" y="75.0" text-anchor="middle" alignment-baseline="middle" fill="black">A</text>
	<rect x="30" y="70" width="10" height="10" fill-opacity="0" />
	<text x="35.0" y="75.0" text-anchor="middle" alignment-baseline="middle" fill="black">G</text>
	<rect x="40" y="70" width="10" height="10" fill-opacity="0" />
	<text x="45.0" y="75.0" text-anchor="middle" alignment-baseline="middle" fill="black">J</text>
	<rect x="50" y="70" width="10" height="10" fill-opacity="0" />
	<text x="55.0" y="75.0" text-anchor="middle" alignment-baseline="middle" fill="black">Z</text>
	<rect x="60" y="70" width="10" height="10" fill-opacity="0" />
	<text x="65.0" y="75.0" text-anchor="middle" alignment-baseline="middle" fill="black">M</text>
	<rect x="70" y="70" width="10" height="10" fill-opacity="0" />
	<text x="75.0" y="75.0" text-anchor="middle" alignment-baseline="middle" fill="black">O</text>
	<rect x="80" y="70" width="10" height="10" fill-opacity="0" />
	<text x="85.0" y="75.0" text-anchor="middle" alignment-baseline="middle" fill="black">H</text>
	<rect x="90" y="70" width="10" height="10" fill-opacity="0" />
	<text x="95.0" y="75.0" text-anchor="middle" alignment-baseline="middle" fill="black">S</text>
	<rect x="0" y="80" width="10" height="10" fill-opacity="0" />
	<text x="5.0" y="85.0" text-anchor="middle" alignment-baseline="middle" fill="black">M</text>
	<rect x="10" y="80" width="10" height="10" fill-opacity="0" />
	<text x="15.0" y="85.0" text-anchor="middle" alignment-baseline="middle" fill="black">Q</text>
	<rect x="20" y="80" width="10" height="10" fill-opacity="0" />
	<text x="25.0" y="85.0" text-anchor="middle" alignment-baseline="middle" fill="black">J</text>
	<rect x="30" y="80" width="10" height="10" fill-opacity="0" />
	<text x="35.0" y="85.0" text-anchor="middle" alignment-baseline="middle" fill="black">I</text>
	<rect x="40" y="80" width="10" height="10" fill-opacity="0" />
	<text x="45.0" y="85.0" text-anchor="middle" alignment-baseline="middle" fill="black">C</text>
	<rect x="50" y="80" width="10" height="10" fill-opacity="0" />
	<text x="55.0" y="85.0" text-anchor="middle" alignment-baseline="middle" fill="black">C</text>
	<rect x="60" y="80" width="10" height="10" fill-opacity="0" />
	<text x="65.0" y="85.0" text-anchor="middle" alignment-baseline="middle" fill="black">N</text>
	<rect x="70" y="80" width="10" height="10" fill-opacity="0" />
	<text x="75.0" y="85.0" text-anchor="middle" alignment-baseline="middle" fill="black">Q</text>
	<rect x="80" y="80" width="10" height="10" fill-opacity="0" />
	<text x="85.0" y="85.0" text-anchor="middle" alignment-baseline="middle" fill="black">B</text>
	<rect x="90" y="80" width="10" height="10" fill-opacity="0" />
	<text x="95.0" y="85.0" text-anchor="middle" alignment-baseline="middle" fill="black">P</text>
	<rect x="0" y="90" width="10" height="10" fill-opacity="0" />
	<text x="5.0" y="95.0" text-anchor="middle" alignment-baseline="middle" fill="black">X</text>
	<rect x="10" y="90" width="10" height="10" fill-opacity="0" />
	<text x="15.0" y="95.0" text-anchor="middle" alignment-baseline="middle" fill="black">V</text>
	<rect x="20" y="90" width="10" height="10" fill-opacity="0" />
	<text x="25.0" y="95.0" text-anchor="middle" alignment-baseline="middle" fill="black">T</text>
	<rect x="30" y="90" width="10" height="10" fill-opacity="0" />
	<text x="35.0" y="95.0" text-anchor="middle" alignment-baseline="middle" fill="blue" font-weight = "900">S</text>
	<rect x="40" y="90" width="10" height="10" fill-opacity="0" />
	<text x="45.0" y="95.0" text-anchor="middle" alignment-baseline="middle" fill="blue" font-weight = "900">T</text>
	<rect x="50" y="90" width="10" height="10" fill-opacity="0" />
	<text x="55.0" y="95.0" text-anchor="middle" alignment-baseline="middle" fill="blue" font-weight = "900">U</text>
	<rect x="60" y="90" width="10" height="10" fill-opacity="0" />
	<text x="65.0" y="95.0" text-anchor="middle" alignment-baseline="middle" fill="blue" font-weight = "900">N</text>
	<rect x="70" y="90" width="10" height="10" fill-opacity="0" />
	<text x="75.0" y="95.0" text-anchor="middle" alignment-baseline="middle" fill="blue" font-weight = "900">O</text>
	<rect x="80" y="90" width="10" height="10" fill-opacity="0" />
	<text x="85.0" y="95.0" text-anchor="middle" alignment-baseline="middle" fill="blue" font-weight = "900">D</text>
	<rect x="90" y="90" width="10" height="10" fill-opacity="0" />
	<text x="95.0" y="95.0" text-anchor="middle" alignment-baseline="middle" fill="black">R</text>
	<text x="30.0" y="105.0" text-anchor="middle" alignment-baseline="middle" fill="blue" font-weight = "900">BACON</text>
	<text x="63.333333333333336" y="105.0" text-anchor="middle" alignment-baseline="middle" fill="blue" font-weight = "900">CHEESE</text>
	<text x="96.66666666666667" y="105.0" text-anchor="middle" alignment-baseline="middle" fill="blue" font-weight = "900">DONUTS</text>
	<text x="30.0" y="115.0" text-anchor="middle" alignment-baseline="middle" fill="blue" font-weight = "900">PIZZA</text>
	<text x="63.333333333333336" y="115.0" text-anchor="middle" alignment-baseline="middle" fill="blue" font-weight = "900">SUSHI</text>
	<text x="96.66666666666667" y="115.0" text-anchor="middle" alignment-baseline="middle" fill="blue" font-weight = "900">TACOS</text>
</svg>
